<?xml version="1.0" standalone="no"?>
<!DOCTYPE svg PUBLIC "-//W3C//DTD SVG 20010904//EN"
 "http://www.w3.org/TR/2001/REC-SVG-20010904/DTD/svg10.dtd">
<svg version="1.0" xmlns="http://www.w3.org/2000/svg"
 width="200.000000pt" height="200.000000pt" viewBox="0 0 200.000000 200.000000"
 preserveAspectRatio="xMidYMid meet">

<g transform="translate(0.000000,200.000000) scale(0.100000,-0.100000)"
fill="#ffffff" stroke="none">
<path d="M304 1936 c-17 -8 -44 -31 -60 -52 l-29 -37 0 -848 c0 -840 0 -848
21 -875 11 -15 33 -37 48 -48 27 -21 38 -21 702 -24 748 -3 718 -5 770 64 l29
37 0 848 c0 840 0 848 -21 875 -11 15 -33 37 -48 48 -27 21 -38 21 -704 23
-555 2 -683 0 -708 -11z m1383 -88 l23 -21 0 -826 0 -825 -22 -23 -21 -23
-666 0 -665 0 -23 22 -23 21 0 826 0 825 22 23 21 23 666 0 665 0 23 -22z"/>
<path d="M653 1680 c-40 -24 -53 -48 -53 -99 0 -31 7 -49 29 -73 26 -29 35
-33 81 -33 46 0 55 4 81 33 51 57 36 142 -31 177 -39 20 -69 19 -107 -5z"/>
<path d="M1032 1658 c-16 -16 -15 -33 4 -52 13 -14 47 -16 220 -16 123 0 213
4 225 10 21 12 25 40 7 58 -17 17 -439 17 -456 0z"/>
<path d="M572 1424 c-33 -39 -52 -94 -52 -147 0 -32 4 -37 38 -49 22 -8 82
-13 152 -13 70 0 130 5 153 13 33 12 37 17 37 49 0 55 -20 110 -55 150 l-32
37 -35 -17 c-44 -21 -94 -22 -132 -2 -39 20 -41 20 -74 -21z"/>
<path d="M1029 1334 c-9 -11 -10 -20 -2 -32 9 -15 36 -17 233 -17 194 0 224 2
233 16 6 9 7 24 4 33 -6 14 -32 16 -230 16 -193 0 -226 -2 -238 -16z"/>
<path d="M512 1028 c-16 -16 -15 -43 2 -57 9 -8 147 -10 491 -9 443 3 479 4
489 21 8 12 8 22 0 35 -10 16 -47 17 -490 20 -365 2 -483 -1 -492 -10z"/>
<path d="M504 706 c-3 -8 -4 -23 -2 -33 3 -17 30 -18 495 -21 489 -2 492 -2
498 18 16 50 18 50 -502 50 -412 0 -484 -2 -489 -14z"/>
<path d="M518 399 c-21 -12 -23 -40 -6 -57 17 -17 959 -17 976 0 18 18 14 46
-7 58 -27 14 -939 13 -963 -1z"/>
</g>
</svg>
